<svg t="1622871367472" class="icon" viewBox="0 0 1024 1024" version="1.1" xmlns="http://www.w3.org/2000/svg" p-id="2497"
    width="192" height="192">
    <path
        d="M435.2 635.733333c-12.8 0-21.333333-4.266667-29.866667-12.8-89.6-89.6-89.6-238.933333 0-332.8L610.133333 85.333333c89.6-89.6 238.933333-89.6 332.8 0 42.666667 42.666667 68.266667 106.666667 68.266667 166.4s-25.6 123.733333-68.266667 166.4l-115.2 119.466667c-17.066667 17.066667-42.666667 17.066667-59.733333 0-17.066667-17.066667-17.066667-42.666667 0-59.733333l115.2-115.2c59.733333-59.733333 59.733333-157.866667 0-217.6C823.466667 85.333333 725.333333 85.333333 665.6 145.066667L469.333333 349.866667c-59.733333 59.733333-59.733333 157.866667 0 217.6 17.066667 17.066667 17.066667 42.666667 0 59.733333-8.533333 4.266667-21.333333 8.533333-34.133333 8.533333zM256 1015.466667c-64 0-123.733333-25.6-166.4-68.266667S21.333333 840.533333 21.333333 780.8s25.6-123.733333 68.266667-166.4l115.2-115.2c17.066667-17.066667 42.666667-17.066667 59.733333 0 17.066667 17.066667 17.066667 42.666667 0 59.733333l-115.2 115.2c-59.733333 59.733333-59.733333 157.866667 0 217.6 25.6 25.6 68.266667 42.666667 106.666667 42.666667s81.066667-17.066667 106.666667-42.666667l204.8-204.8c25.6-25.6 42.666667-68.266667 42.666666-106.666666 0-38.4-17.066667-81.066667-42.666666-106.666667-17.066667-17.066667-17.066667-42.666667 0-59.733333 17.066667-17.066667 42.666667-17.066667 59.733333 0 42.666667 42.666667 68.266667 106.666667 68.266667 166.4 0 64-25.6 123.733333-68.266667 166.4l-204.8 204.8c-46.933333 38.4-102.4 64-166.4 64z"
        p-id="2498"></path>
</svg>