<svg t="1613799527210" class="icon" viewBox="0 0 1024 1024" version="1.1" xmlns="http://www.w3.org/2000/svg" p-id="3511"
    width="192" height="192">
    <path
        d="M426.666667 85.333333c-47.36 0-85.333333 37.973333-85.333334 85.333334v128c0 47.36 37.973333 85.333333 85.333334 85.333333h42.666666v85.333333H85.333333v85.333334h170.666667v85.333333H213.333333c-47.36 0-85.333333 37.973333-85.333333 85.333333v128c0 47.36 37.973333 85.333333 85.333333 85.333334h170.666667c47.36 0 85.333333-37.973333 85.333333-85.333334v-128c0-47.36-37.973333-85.333333-85.333333-85.333333H341.333333v-85.333333h341.333334v85.333333h-42.666667c-47.36 0-85.333333 37.973333-85.333333 85.333333v128c0 47.36 37.973333 85.333333 85.333333 85.333334h170.666667c47.36 0 85.333333-37.973333 85.333333-85.333334v-128c0-47.36-37.973333-85.333333-85.333333-85.333333h-42.666667v-85.333333h170.666667v-85.333334h-384V384h42.666666c47.36 0 85.333333-37.973333 85.333334-85.333333V170.666667c0-47.36-37.973333-85.333333-85.333334-85.333334h-170.666666m0 85.333334h170.666666v128h-170.666666V170.666667M213.333333 725.333333h170.666667v128H213.333333v-128m426.666667 0h170.666667v128h-170.666667v-128z"
        p-id="3512"></path>
</svg>