<?xml version="1.0" standalone="no"?>
<!DOCTYPE svg PUBLIC "-//W3C//DTD SVG 1.1//EN" "http://www.w3.org/Graphics/SVG/1.1/DTD/svg11.dtd"><svg t="1609842896809"
    class="icon" viewBox="0 0 1024 1024" version="1.1" xmlns="http://www.w3.org/2000/svg" p-id="3241"
    xmlns:xlink="http://www.w3.org/1999/xlink" width="128" height="128">
    <defs></defs>
    <path
        d="M878.933333 921.6 648.533333 921.6l0-68.266667 221.866667 0 0-153.6 68.266667 0 0 145.066667L938.666667 921.6 878.933333 921.6zM85.333333 477.866667l853.333333 0 0 68.266667L85.333333 546.133333 85.333333 477.866667zM870.4 170.666667 648.533333 170.666667 648.533333 102.4l230.4 0L938.666667 102.4l0 59.733333L938.666667 324.266667l-68.266667 0L870.4 170.666667zM153.6 324.266667 85.333333 324.266667 85.333333 162.133333 85.333333 102.4l76.8 0L375.466667 102.4l0 68.266667L153.6 170.666667 153.6 324.266667zM153.6 853.333333l221.866667 0 0 68.266667L162.133333 921.6 85.333333 921.6l0-76.8L85.333333 699.733333l68.266667 0L153.6 853.333333z"
        p-id="3242"></path>
</svg>