<svg t="1613801743733" class="icon" viewBox="0 0 1024 1024" version="1.1" xmlns="http://www.w3.org/2000/svg" p-id="2147"
    width="192" height="192">
    <path
        d="M540.245 670.379a42.667 42.667 0 0 1 3.755 3.754l170.923 193.622a42.667 42.667 0 0 1-32 70.912H341.077a42.667 42.667 0 0 1-32-70.912L480 674.133a42.667 42.667 0 0 1 60.245-3.754zM896 85.333a85.333 85.333 0 0 1 85.333 85.334v570.837A85.333 85.333 0 0 1 896 826.837l-127.19-0.042-192.938-217.728a85.333 85.333 0 0 0-3.541-3.755l-3.755-3.541a85.333 85.333 0 0 0-115.328 1.962l-5.12 5.334-192.981 217.728H128a85.333 85.333 0 0 1-85.333-85.334V170.667A85.333 85.333 0 0 1 128 85.333h768z"
        p-id="2148"></path>
</svg>